<?xml version="1.0" encoding="utf-8"?>
<!-- Generator: Adobe Illustrator 24.1.1, SVG Export Plug-In . SVG Version: 6.00 Build 0)  -->
<svg version="1.1" id="Слой_1" xmlns="http://www.w3.org/2000/svg" xmlns:xlink="http://www.w3.org/1999/xlink" x="0px" y="0px"
	 viewBox="0 0 1275.6 1275.6" style="enable-background:new 0 0 1275.6 1275.6;" xml:space="preserve">
<style type="text/css">
	.st0{fill:#3C509E;stroke:#EB8244;stroke-miterlimit:10;}
	.st1{fill:#3C509E;}
	.st2{fill:#3C509E;stroke:#EB8244;stroke-width:5;stroke-miterlimit:10;}
	.st3{fill:#EB8244;stroke:#EB8244;stroke-width:5;stroke-miterlimit:10;}
	.st4{fill:#3C509E;stroke:#EB8244;stroke-width:5;stroke-linecap:round;stroke-miterlimit:10;}
	.st5{fill:#3C509E;stroke:#EB8244;stroke-width:5;stroke-linecap:round;stroke-miterlimit:2.1369;}
	
		.st6{fill-rule:evenodd;clip-rule:evenodd;fill:#3C509E;stroke:#EB8244;stroke-width:5;stroke-linecap:round;stroke-miterlimit:2.1369;}
	.st7{fill:#3C509E;stroke:#EB8244;stroke-width:5;stroke-miterlimit:2.1369;}
	.st8{fill:#3C509E;stroke:#000000;stroke-width:5;stroke-linecap:round;stroke-linejoin:round;stroke-miterlimit:10;}
	.st9{fill:none;stroke:#EB8244;stroke-width:5;stroke-linecap:round;stroke-miterlimit:10;}
	.st10{fill:#3C509E;stroke:#EB8244;stroke-width:3;stroke-miterlimit:10;}
</style>
<g id="XMLID_1_">
	<path class="st0" d="M1176.4,637.8c0,297.5-241.1,538.6-538.6,538.6S99.2,935.2,99.2,637.8S340.3,99.2,637.8,99.2
		S1176.4,340.3,1176.4,637.8z"/>
</g>
<path class="st1" d="M813.2,849.6"/>
<path class="st2" d="M652.6,654.6H607l-10.1-120.9c0-8,6.5-14.4,14.4-14.4h36.1c9.9,0,17.9,8,17.9,17.9L652.6,654.6z"/>
<rect x="619.6" y="506.9" class="st3" width="19.1" height="12.4"/>
<path class="st2" d="M626.1,543.4h-5.9c-6.4,0-11.6-5.2-11.6-11.6l0,0c0-6.4,5.2-11.6,11.6-11.6h16.4c3.5,0,6.4,2.8,6.4,6.4l0,0
	C643,535.8,635.5,543.4,626.1,543.4z"/>
<path class="st4" d="M663.7,451.4L663.7,451.4c0-29-23.5-52.5-52.5-52.5l0,0c-29,0-52.5,23.5-52.5,52.5l0,0c0,0-0.2,22.2,16.8,38.4
	c2.7,2.6,7,2.1,9.2-0.9l24.8-34.9c1.1-1.6,3-2.6,5-2.6H663.7"/>
<path class="st5" d="M602.6,672.8"/>
<path class="st5" d="M602.6,516.1"/>
<path class="st6" d="M530.6,838.9l73.1,65.3c21.2,3.5,21.7,11.7,20,25.1h-37.9c-0.2-10.4-5.5-18.6-15-25.1l-83.2-46.8
	c-6-3.7-8.6-11.1-6.3-17.7l2-18c4.8-36.5,4-37.8,4.8-36.5L642.3,798c-23.2,19.1-40.9,30.7-106.4,39.9
	C534.2,838.1,530.6,838.9,530.6,838.9"/>
<path class="st6" d="M778.5,740.8H885v103.8c-1.4,10.1-5.2,19-17.9,23.2l-17.9-31.9l12.1-11.8c-9.4-14.2-10.5-32.2-8.6-51.6
	l-141.5,3.1L778.5,740.8z"/>
<path class="st7" d="M763.9,774.3l97.4,155.6l5,6.4c14.6,0.9,21.8,8.8,20,25.1h-37.9c-1.7-11.5-5.6-21-15-25.1L709.8,783.3
	L763.9,774.3z"/>
<path class="st2" d="M551.3,793.5l28.6,3c-6.6,3.8-24.5,26.2-46.5,43.7c-7.6,6.1-11.5,15.8-10.2,25.5l6.5,71.6h2.8
	c17.9,2.1,19.1,12,17.5,25.1l-36-0.3c2.4-8.9-2.1-17.1-12.9-24.8l-20.5-87.6l7.6-64.4l53.8-26.8L551.3,793.5z"/>
<path class="st8" d="M737.9,595.6"/>
<path class="st8" d="M825.1,579.5"/>
<path class="st8" d="M725.7,628.1"/>
<path class="st8" d="M808.8,595.6"/>
<g>
	<path class="st2" d="M615.7,507.7h29.8c3.7,0,6.5-3.5,5.7-7.1l-8.2-37.1c-1.4-6.5-7.2-11.2-13.9-11.2h-9.7c-8,0-14.6,6.4-14.7,14.4
		l-0.6,29.2C604.1,502.5,609.2,507.7,615.7,507.7z"/>
	<path class="st2" d="M813,318.8"/>
	<line class="st9" x1="612.6" y1="784" x2="833.4" y2="271.3"/>
	<path class="st2" d="M808.8,691l7.8-61.2c0,0,4.8-23.5,12.3-30c-13.2,25.8-12.1,48.2,18.2,52.5c3.2,8.8,5.3,15.2,13.8,20
		c7.2,24.8,20.4,19.9,19.1,6.8c4.4,6.5,11.8,10.8,18.9-0.4c7.2,0.9,8.8-9.4,6.8-14.6l-9.4-25.6c0,0,0,0-8.4-18.7c0,0,0,0,0,0
		l-13.5-32.3c0.3-7.3,5.9-12.5,14.5-16.7c-9-1-17.3-0.2-21.8,9.6c-3.4-7.6,0.4-14.9,10.1-21.9c-11.2-0.2-19.4,7.2-27.4,15.4
		l-4.3-2.5l5.8-8.9c-0.3-0.1-0.7-0.2-1.1-0.3c-46.3-11.2-94.3,10.6-116.7,52.7l-18.9,35.4c-10.5,19.7-30.4,32.7-52.7,34.4l-81.7,6.3
		c-51.3,0-92.9,41.6-92.9,92.9l0,0c93.5,16.7,173.9,20.7,228.6,0C768.7,785.7,810,743.7,808.8,691"/>
	<path class="st4" d="M732.2,689.8"/>
	<path class="st2" d="M789.8,570.8"/>
	<path class="st4" d="M741.3,620.9"/>
	<path class="st2" d="M666.8,695.1c2.1,2.1,0.7,69.3,1.3,74.3c0.2,2.4-0.3,3.8-0.4,5.3c-0.1,1.8-0.5,3.7-1.4,5.3
		c-0.3,0.6-0.3,1.3,0.5,2.4c0.9-1.2-0.4,1.1-0.2,1.3c0.4,0.5-0.5,1.6,0,1.8c0.6,0.2,0,0,0.1,0.7c0.2,1.7,0.6,3.3,0.7,4.9
		c0.1,2.2-0.2,4.4-0.1,6.6c0.1,1.1,0.8,2.1,0.7,3.4c0,0.9,1,1.5,2.1,1.6c2.1,0.3,4.3,0.7,6.4,0.8c3.6,0.2,7.2,0.3,10.8-0.3
		c2.7-0.5,5.4,0.2,7.9,1c3.7,1.2,7.5,2.5,11.4,2.6c3.6,0.1,7.2,0,10.8-0.2c2.1-0.1,3.3-1.1,3.6-3.1c0.1-0.8,0.7-1.6,0.9-2.4
		c0.3-1.7-0.1-1.9-1.8-2.4c-1.4-0.4-3-0.6-4.3-1.2c-1.3-0.6-2.3-1.5-3.5-2.3c-0.6-0.4-1.2-0.9-1.9-1c-2-0.2-3.3-1.2-4.7-2.6
		c-0.4-0.4-1.2-1-1.7-0.9c-1.6,0.3-2.5-0.8-3.5-1.5c-1.3-0.9-2.5-1.8-3.8-2.8c-0.6-0.5-1.4-1.3-1.9-1.9c-0.8-1-1.9-1.4-3.4-1.2
		c-0.2,0-0.4-0.2-0.6-0.3c-2-1.6-0.4-3.4-2.5-5c0.1-1.7,0,0,0,0c0.2-5.4,0.7-3,0.2-3.8c0.2-8.8,2.3-17.3,0.2-8.8
		c-0.8,2.9,0.8-3.2,1.6-6.8c2.8-13.6,17-44.4,17.6-62.7"/>
	
		<ellipse transform="matrix(0.7071 -0.7071 0.7071 0.7071 -258.7746 652.7986)" class="st2" cx="658.6" cy="638.8" rx="94.4" ry="94.4"/>
	<path class="st4" d="M833.4,271.3H581.2c0,0-6.7,13.1-27.6,13.1s-173.9,0-173.9,0"/>
	<path class="st4" d="M813,314.5H581.2c0,0-6.7,13.1-27.6,13.1s-173.9,0-173.9,0"/>
</g>
<path class="st6" d="M644.2,533.9"/>
<path class="st6" d="M625.5,476.8h18.6V473c0-1.6-1.3-3-3-3h-22.1v0.3C619.1,473.9,622,476.8,625.5,476.8z"/>
<path class="st10" d="M858.8,611.5c4.2-4.6,10.9,1.5,6.8,6.1"/>
<path class="st2" d="M498.3,736.1c-8.5-34.8-25.3-46.8-49.5-38.5c-15,5.1-27.3,16.1-34.7,30.1l-13.4,25.1
	c-15.2,28.6-46.5,45.4-78.5,41c-1-0.1-2-0.3-3-0.5c6.8,26.5,25.4,38.2,52.4,39.8c30.4,1.7,59.8-11.5,79.4-34.8
	c0.3-0.4,0.7-0.8,1-1.2c6.1-7.4,10.6-15.9,14-24.8C472,757.2,483,745.3,498.3,736.1z"/>
</svg>
